<svg id="Iconly_Broken_Folder" data-name="Iconly/Broken/Folder" xmlns="http://www.w3.org/2000/svg" width="36.689" height="36.689" viewBox="0 0 36.689 36.689">
  <g id="Folder">
    <path id="Folder-2" data-name="Folder" d="M35.286,19.587a1.4,1.4,0,0,0,1.4-1.4V16.312c0-7.422-3.306-11.036-10.08-11.036h-5a2.612,2.612,0,0,1-2.08-1.016L17.917,2.114A5.482,5.482,0,0,0,13.579,0H10.063C3.387,0,0,3.856,0,11.472V25.234C0,32.3,4.387,36.689,11.466,36.689h13.74c7.064,0,11.466-4.389,11.466-11.455a1.419,1.419,0,0,0-2.822,0c0,5.566-3.064,8.648-8.644,8.648H11.45c-5.58,0-8.644-3.066-8.644-8.648V23.895H25.384a1.4,1.4,0,0,0,0-2.807H2.806V11.407c0-6.067,2.161-8.664,7.241-8.664H13.6a2.693,2.693,0,0,1,2.08,1.033l1.613,2.13A5.434,5.434,0,0,0,21.61,8.067h4.983c5.241,0,7.273,2.339,7.273,8.245v1.872a1.4,1.4,0,0,0,1.419,1.4Z" transform="translate(0 0)" fill="#fff"/>
  </g>
</svg>
