<?xml version="1.0" standalone="no"?>
<!DOCTYPE svg PUBLIC "-//W3C//DTD SVG 20010904//EN"
 "http://www.w3.org/TR/2001/REC-SVG-20010904/DTD/svg10.dtd">
<svg version="1.0" xmlns="http://www.w3.org/2000/svg"
 width="505.000000pt" height="618.000000pt" viewBox="0 0 505.000000 618.000000"
 preserveAspectRatio="xMidYMid meet">
<metadata>
Created by potrace 1.16, written by Peter Selinger 2001-2019
</metadata>
<g transform="translate(0.000000,618.000000) scale(0.100000,-0.100000)"
fill="#000000" stroke="none">
<path d="M290 5952 c-20 -10 -42 -32 -52 -52 -17 -33 -18 -187 -18 -2793 0
-2987 -3 -2803 53 -2840 25 -16 170 -17 2221 -17 l2195 0 36 35 35 36 0 2787
c-1 2197 -3 2790 -13 2803 -7 9 -28 26 -47 38 l-35 21 -2170 0 c-2046 0 -2172
-1 -2205 -18z m2105 -59 c-100 -13 -250 -59 -351 -108 -570 -276 -803 -941
-527 -1501 139 -282 403 -505 697 -589 135 -38 217 -48 356 -42 164 7 290 39
435 111 240 118 414 293 531 531 80 165 108 289 109 480 0 132 -4 163 -29 260
-66 257 -218 484 -431 642 -140 105 -349 191 -515 212 -42 5 122 9 458 10
l522 1 0 -75 0 -75 445 0 445 0 -2 -2642 -3 -2643 -2025 -3 c-1114 -1 -2035 0
-2048 3 l-22 5 2 2638 3 2637 478 3 477 2 0 75 0 75 513 -1 c281 -1 499 -4
482 -6z m342 -167 c296 -64 544 -262 674 -541 63 -133 83 -234 83 -410 0 -180
-21 -278 -88 -421 -53 -112 -89 -165 -168 -250 -84 -89 -166 -149 -283 -205
-411 -198 -916 -89 -1190 256 -59 75 -135 211 -165 300 -79 230 -59 538 50
756 55 109 88 156 169 241 143 152 339 253 559 288 78 12 272 5 359 -14z"/>
<path d="M795 3395 c-24 -24 -35 -45 -35 -64 0 -38 23 -82 52 -98 18 -10 219
-12 951 -13 1008 0 969 -2 995 55 22 47 15 82 -23 120 l-36 35 -934 0 -934 0
-36 -35z"/>
<path d="M3481 3399 c-25 -25 -31 -39 -31 -76 0 -36 6 -50 29 -74 l29 -29 316
0 c214 0 323 4 340 11 14 7 32 27 41 46 24 49 13 96 -29 128 l-33 25 -316 0
-315 0 -31 -31z"/>
<path d="M794 2916 c-37 -37 -43 -72 -21 -119 27 -59 -10 -57 992 -57 1000 0
967 -2 994 56 21 46 14 83 -23 120 l-34 34 -937 0 -937 0 -34 -34z"/>
<path d="M3481 2924 c-27 -22 -31 -32 -31 -73 0 -53 29 -95 72 -106 12 -3 161
-5 330 -3 l308 3 27 28 c22 22 28 37 28 73 0 39 -5 50 -33 75 l-32 29 -319 0
-319 0 -31 -26z"/>
<path d="M824 2460 c-29 -11 -64 -62 -64 -93 0 -45 28 -85 73 -102 38 -14 138
-15 952 -13 850 3 912 4 936 21 55 37 64 105 20 157 l-29 35 -933 2 c-514 1
-944 -2 -955 -7z"/>
<path d="M3520 2463 c-8 -3 -27 -17 -42 -31 -23 -21 -28 -34 -28 -72 0 -39 5
-51 31 -76 l30 -29 304 -3 c344 -3 359 -1 390 65 14 29 15 43 6 73 -23 76 -15
75 -365 77 -171 1 -318 -1 -326 -4z"/>
<path d="M794 1954 c-38 -40 -44 -77 -19 -124 32 -63 -13 -60 992 -60 991 0
950 -2 987 54 28 43 21 93 -18 132 l-34 34 -937 0 -938 0 -33 -36z"/>
<path d="M3505 1978 c-53 -29 -73 -108 -39 -157 33 -47 62 -51 372 -51 285 0
290 0 323 23 67 45 75 124 17 172 l-30 25 -311 0 c-208 -1 -319 -4 -332 -12z"/>
<path d="M830 1507 c-31 -14 -43 -26 -58 -54 -26 -48 -4 -120 43 -141 19 -9
256 -12 958 -12 868 0 933 2 953 18 70 56 54 153 -29 190 -39 17 -1830 16
-1867 -1z"/>
<path d="M3514 1505 c-69 -30 -86 -119 -35 -174 l29 -31 321 0 321 0 32 28
c27 25 31 36 31 75 0 53 -19 82 -70 103 -46 20 -584 19 -629 -1z"/>
<path d="M818 1014 c-68 -37 -75 -127 -14 -176 20 -16 86 -18 963 -18 l941 0
31 31 c51 51 37 130 -30 165 -43 22 -1851 20 -1891 -2z"/>
<path d="M3487 999 c-33 -27 -37 -35 -37 -78 0 -39 5 -53 26 -75 l27 -26 327
0 327 0 26 26 c53 53 38 142 -28 172 -18 8 -118 12 -328 12 l-302 0 -38 -31z"/>
<path d="M2147 5293 c-9 -8 -9 -56 -1 -104 l6 -36 122 -7 c149 -9 194 -27 237
-95 l30 -46 -196 -3 -195 -2 0 -75 0 -75 195 -2 196 -3 -30 -46 c-44 -71 -96
-91 -245 -98 -137 -7 -133 -3 -121 -96 5 -44 10 -54 28 -59 13 -3 124 -104
249 -226 l226 -220 51 53 51 52 -177 177 c-150 150 -174 178 -157 184 102 37
150 69 204 139 22 29 47 73 56 98 l16 46 101 3 102 3 3 73 3 72 -103 0 -103 1
-35 74 -35 74 135 3 135 3 0 70 0 70 -371 3 c-204 1 -373 -1 -377 -5z"/>
</g>
</svg>
